<?xml version="1.0" encoding="UTF-8"?>
<svg id="_レイヤー_2" data-name="レイヤー 2" xmlns="http://www.w3.org/2000/svg" width="144" height="90" viewBox="0 0 144 90">
  <defs>
    <style>
      .cls-1 {
        fill: #fff;
        stroke-width: 0px;
      }
    </style>
  </defs>
  <g id="main">
    <g id="cycle_icon">
      <path class="cls-1" d="M135.67,40.96c-5.37-5.33-12.53-8.27-20.13-8.27-1.81,0-3.6.17-5.32.51-.73.13-1.44.3-2.15.49-.71.17-1.4.41-2.01.66l-9.48-19.61-4.08-8.49h8.56c.88,0,1.61.15,2.3.49.94.5,1.68,1.25,2.2,2.24.53.99.83,2.26.83,3.5,0,.85-.13,1.65-.38,2.31-.22.64-.56,1.21-1,1.71l4.02,3.95c.19-.18.32-.41.49-.61.14-.16.28-.33.41-.5.31-.41.58-.85.83-1.32.1-.19.19-.38.28-.57.11-.25.26-.46.35-.72.47-1.31.71-2.73.71-4.24s-.24-2.96-.71-4.28c-.42-1.3-1.09-2.57-1.96-3.66-.95-1.22-2.17-2.2-3.52-2.85-.52-.27-1.09-.48-1.75-.66-.92-.29-1.96-.43-3.09-.43h-19.74l-2.35.04.05,5.61,7.18-.03,3.54,7.25,1.49,3.1-42.03.03-2.36-4.83-.73-1.53,12.54-1.56.06-8.53V.04s0,0,0,0v-.04s-31.14.04-31.14.04h-.1l.14,11.07v1.28s.02,0,.02,0v.04s12.53-1.52,12.53-1.52l1.66,3.41,2.54,5.28-4.19,9.26-2.72,6.1c-.69-.24-1.38-.43-2.09-.62-.73-.17-1.44-.32-2.17-.43-1.48-.27-3.06-.41-4.69-.41-7.59,0-14.74,2.94-20.11,8.27C2.97,47.14,0,54.23,0,61.77c0,4.53,1.07,8.89,3.19,12.95,1.34,2.58,3.08,4.94,5.17,7.01,2.08,2.09,4.46,3.82,7.08,5.15,3.96,2.04,8.42,3.12,12.9,3.12h.2c7.57,0,14.68-2.94,20.03-8.27,3.58-3.53,6.15-7.99,7.43-12.91.19-.71.34-1.41.47-2.14.13-.71.24-1.41.26-2.1h11.05c.19,0,.39-.02.61-.05.22-.06.39-.13.78-.32.15-.07.29-.16.55-.39.15-.15.3-.32.46-.52l16.39-25.32,8.57-13.19,5.77,11.91c-.63.36-1.23.75-1.81,1.17-.6.41-1.19.86-1.74,1.35-.66.51-1.31,1.08-1.96,1.73-5.36,5.34-8.31,12.44-8.31,19.98s2.95,14.64,8.31,19.96c5.37,5.33,12.52,8.27,20.13,8.27s14.76-2.94,20.13-8.27c5.37-5.31,8.33-12.4,8.33-19.96s-2.96-14.65-8.33-19.98ZM129.24,74.54c-3.64,3.62-8.51,5.62-13.71,5.64-5.19-.02-10.06-2.02-13.71-5.64-3.65-3.65-5.66-8.48-5.66-13.6s1.89-9.66,5.33-13.24c.1-.12.21-.25.33-.37.41-.4.84-.81,1.29-1.15.54-.48,1.11-.89,1.69-1.29l.94,1.92,7.78,16.17c.47,1,1.45,1.63,2.56,1.63.4,0,.83-.1,1.24-.28.69-.33,1.21-.9,1.47-1.62.25-.71.2-1.47-.13-2.15l-7.76-16.13-.85-1.65-.12-.25c.71-.22,1.43-.38,2.14-.49.68-.14,1.41-.23,2.23-.28.41-.02.82-.04,1.22-.04,5.17,0,10.03,2,13.71,5.62,3.65,3.62,5.66,8.46,5.66,13.6,0,5.12-2.01,9.96-5.66,13.6ZM53.49,48.31c-1.29-2.37-2.94-4.57-4.91-6.52-.81-.81-1.63-1.52-2.43-2.11-.56-.47-1.14-.9-1.75-1.3-.6-.41-1.23-.77-1.83-1.07l4.97-10.99,9.22,19.09,4.61,9.49,1.94,4.04-6.53.04c-.07-.73-.17-1.43-.3-2.14-.13-.73-.28-1.43-.47-2.14-.37-1.44-.8-2.72-1.38-4.04-.34-.81-.73-1.6-1.14-2.35ZM37.06,58.97h-4.33l5.24-11.52.86-1.92c.61.38,1.19.79,1.74,1.23.58.44,1.11.92,1.67,1.51,1.88,1.87,3.31,4.04,4.25,6.45.31.7.52,1.44.71,2.13.16.56.28,1.15.41,1.72.02.12.06.23.08.36l-10.62.04ZM33.65,43.2l-.9,1.95-6.75,14.91c-.09.15-.13.33-.18.5l-.15.56c-.2.84,0,1.74.55,2.41.55.68,1.37,1.06,2.25,1.06l16.73-.05h2.45c-.11.72-.26,1.44-.45,2.12-.17.72-.4,1.43-.69,2.13-.94,2.43-2.41,4.65-4.35,6.58-3.64,3.62-8.5,5.62-13.68,5.64-5.19-.02-10.06-2.02-13.71-5.64-3.67-3.64-5.68-8.47-5.68-13.6s2.02-9.96,5.68-13.6c3.67-3.62,8.54-5.62,13.71-5.62.28,0,.54,0,.82.02.73.02,1.46.1,2.25.23.6.09,1.18.21,1.74.32.12.03.25.04.37.08ZM68.18,56.01l-2.74-5.67-13.53-28.12,24.72-.04h13.48l-4.67,7.17-1.87,2.92-10.12,15.64-5.27,8.11Z"/>
    </g>
  </g>
</svg>