<?xml version="1.0" encoding="UTF-8"?>
<svg id="_レイヤー_2" data-name="レイヤー 2" xmlns="http://www.w3.org/2000/svg" width="64" height="99" viewBox="0 0 64 99">
  <defs>
    <style>
      .cls-1 {
        fill: #fff;
        stroke-width: 0px;
      }
    </style>
  </defs>
  <g id="main">
    <g id="design_icon">
      <path class="cls-1" d="M26.12,30.19v11.71c0,3.35,2.63,6.07,5.88,6.07s5.88-2.72,5.88-6.07v-11.71c0-3.35-2.63-6.07-5.88-6.07-3.25,0-5.88,2.72-5.88,6.07Z"/>
      <path class="cls-1" d="M34.44,0v19.4c4.75,1.15,8.31,5.54,8.31,10.79v11.71c0,6.12-4.82,11.1-10.75,11.1s-10.76-4.98-10.76-11.1v-11.71c0-5.25,3.57-9.64,8.32-10.79V0C13.04,1.29,0,15.51,0,32.9v33.08c0,18.24,14.33,33.02,32,33.02s32-14.79,32-33.02v-33.08C64,15.51,50.97,1.29,34.44,0Z"/>
    </g>
  </g>
</svg>