<?xml version="1.0" encoding="UTF-8"?>
<svg id="_レイヤー_2" data-name="レイヤー 2" xmlns="http://www.w3.org/2000/svg" width="125" height="90" viewBox="0 0 125 90">
  <defs>
    <style>
      .cls-1 {
        fill: #fff;
        stroke-width: 0px;
      }
    </style>
  </defs>
  <g id="main">
    <g id="excel_icon">
      <path class="cls-1" d="M124.55,78.36l-11.13-14.06V5.18c0-2.86-2.31-5.18-5.16-5.18H16.73c-2.85,0-5.15,2.32-5.15,5.18v59.12L.45,78.36c-.29.37-.45.82-.45,1.29v6.22c0,2.28,1.84,4.13,4.11,4.13h116.77c2.27,0,4.11-1.85,4.11-4.13v-6.22c0-.47-.16-.92-.45-1.29ZM18.85,7.31h87.29v49.68H18.85V7.31ZM74.25,85.09h-23.5v-6.25h23.5v6.25Z"/>
      <rect class="cls-1" x="32.24" y="42.38" width="8.65" height="8.68"/>
      <rect class="cls-1" x="45.21" y="33.7" width="8.65" height="17.37"/>
      <rect class="cls-1" x="58.18" y="29.35" width="8.65" height="21.71"/>
      <rect class="cls-1" x="71.15" y="16.33" width="8.65" height="34.73"/>
      <rect class="cls-1" x="84.11" y="25.01" width="8.65" height="26.05"/>
    </g>
  </g>
</svg>