<?xml version="1.0" encoding="UTF-8"?>
<svg id="_レイヤー_2" data-name="レイヤー 2" xmlns="http://www.w3.org/2000/svg" width="129" height="81" viewBox="0 0 129 81">
  <defs>
    <style>
      .cls-1 {
        fill: #fff;
        stroke-width: 0px;
      }
    </style>
  </defs>
  <g id="main">
    <g id="cycle_icon">
      <path class="cls-1" d="M121.54,36.86c-4.82-4.8-11.22-7.44-18.04-7.44-1.62,0-3.23.16-4.76.46-.66.12-1.29.27-1.93.44-.64.16-1.25.37-1.8.6l-8.49-17.65-3.66-7.64h7.67c.79,0,1.44.14,2.06.44.84.45,1.5,1.13,1.97,2.02.47.89.75,2.04.75,3.15,0,.76-.12,1.48-.34,2.08-.19.58-.5,1.09-.9,1.54l3.6,3.55c.17-.16.29-.37.44-.55.13-.15.25-.3.36-.45.27-.37.52-.77.74-1.19.09-.17.17-.34.25-.52.1-.22.23-.41.31-.65.42-1.18.64-2.46.64-3.82s-.21-2.66-.64-3.85c-.37-1.17-.98-2.31-1.76-3.3-.85-1.09-1.94-1.98-3.15-2.57-.46-.24-.98-.43-1.57-.6-.83-.26-1.76-.39-2.77-.39h-17.68l-2.1.04.04,5.05,6.44-.02,3.17,6.52,1.34,2.79-37.65.02-2.12-4.35-.66-1.38,11.23-1.4.05-7.68V.04s0,0,0,0v-.04s-27.9.04-27.9.04h-.09l.13,9.96v1.15s.01,0,.01,0v.04s11.23-1.37,11.23-1.37l1.48,3.07,2.27,4.75-3.76,8.33-2.43,5.49c-.62-.21-1.23-.38-1.87-.56-.66-.16-1.29-.29-1.95-.39-1.33-.24-2.74-.37-4.21-.37-6.8,0-13.2,2.64-18.02,7.44C2.66,42.42,0,48.81,0,55.59c0,4.08.96,8,2.85,11.65,1.2,2.32,2.76,4.45,4.63,6.31,1.86,1.88,4,3.44,6.35,4.64,3.55,1.84,7.54,2.81,11.56,2.81h.18c6.78,0,13.15-2.64,17.95-7.44,3.21-3.18,5.51-7.19,6.65-11.62.17-.63.31-1.27.42-1.92.12-.64.21-1.27.23-1.89h9.9c.17,0,.35-.02.55-.04.19-.06.35-.12.7-.29.14-.06.26-.14.49-.35.14-.14.27-.29.41-.47l14.68-22.79,7.68-11.88,5.17,10.72c-.56.33-1.1.67-1.62,1.06-.54.37-1.06.77-1.56,1.21-.59.46-1.17.97-1.76,1.56-4.8,4.81-7.45,11.19-7.45,17.98s2.64,13.18,7.45,17.96c4.81,4.8,11.22,7.44,18.04,7.44s13.22-2.64,18.04-7.44c4.81-4.78,7.46-11.16,7.46-17.96s-2.65-13.18-7.46-17.98ZM115.78,67.09c-3.27,3.26-7.63,5.06-12.28,5.08-4.65-.02-9.01-1.82-12.28-5.08-3.27-3.28-5.07-7.63-5.07-12.24s1.69-8.69,4.78-11.91c.09-.11.18-.22.3-.33.36-.36.75-.73,1.15-1.04.49-.43.99-.8,1.52-1.16l.85,1.73,6.97,14.55c.42.9,1.3,1.46,2.29,1.46.36,0,.74-.09,1.11-.25.62-.29,1.09-.81,1.31-1.46.22-.64.18-1.33-.12-1.93l-6.95-14.52-.76-1.49-.11-.22c.64-.2,1.28-.35,1.92-.44.61-.12,1.26-.21,2-.25.37-.02.73-.04,1.1-.04,4.63,0,8.99,1.8,12.28,5.06,3.27,3.26,5.07,7.61,5.07,12.24,0,4.61-1.8,8.96-5.07,12.24ZM47.91,43.48c-1.16-2.14-2.64-4.11-4.4-5.87-.73-.73-1.46-1.37-2.18-1.9-.5-.42-1.02-.81-1.56-1.17-.54-.36-1.1-.69-1.64-.97l4.45-9.89,8.26,17.18,4.13,8.54,1.74,3.64-5.85.04c-.06-.66-.15-1.29-.27-1.92-.12-.65-.25-1.29-.42-1.92-.33-1.29-.72-2.44-1.23-3.64-.31-.73-.66-1.44-1.02-2.12ZM33.2,53.08h-3.88l4.69-10.37.77-1.73c.54.34,1.07.71,1.56,1.11.52.4,1,.82,1.5,1.36,1.68,1.68,2.96,3.63,3.8,5.81.28.63.47,1.29.63,1.92.14.51.25,1.04.37,1.55.02.11.05.21.07.32l-9.51.04ZM30.14,38.88l-.81,1.76-6.05,13.42c-.08.14-.12.3-.16.45l-.14.5c-.18.76,0,1.57.49,2.17.49.61,1.23.96,2.02.96l14.98-.04h2.19c-.1.65-.23,1.3-.4,1.91-.15.65-.36,1.29-.61,1.92-.84,2.19-2.16,4.18-3.9,5.92-3.27,3.25-7.62,5.06-12.26,5.08-4.65-.02-9.01-1.82-12.28-5.08-3.28-3.27-5.09-7.62-5.09-12.24s1.81-8.97,5.09-12.24c3.29-3.26,7.65-5.06,12.28-5.06.25,0,.48,0,.73.02.65.02,1.31.09,2.02.21.54.08,1.06.19,1.56.29.11.03.23.04.34.07ZM61.08,50.41l-2.45-5.1-12.12-25.31,22.15-.04h12.08l-4.18,6.45-1.68,2.63-9.06,14.08-4.73,7.3Z"/>
    </g>
  </g>
</svg>