<?xml version="1.0" encoding="UTF-8"?>
<svg id="_レイヤー_2" data-name="レイヤー 2" xmlns="http://www.w3.org/2000/svg" width="73" height="109" viewBox="0 0 73 109">
  <defs>
    <style>
      .cls-1 {
        fill: #fff;
        stroke-width: 0px;
      }
    </style>
  </defs>
  <g id="main">
    <g id="design_icon">
      <path class="cls-1" d="M29.79,33.24v12.89c0,3.69,3,6.68,6.71,6.68s6.71-2.99,6.71-6.68v-12.89c0-3.69-3-6.68-6.71-6.68-3.71,0-6.71,2.99-6.71,6.68Z"/>
      <path class="cls-1" d="M39.28,0v21.36c5.42,1.26,9.48,6.1,9.48,11.88v12.89c0,6.74-5.5,12.22-12.27,12.22s-12.27-5.48-12.27-12.22v-12.89c0-5.78,4.07-10.61,9.49-11.88V0C14.87,1.42,0,17.08,0,36.22v36.42c0,20.08,16.34,36.36,36.5,36.36s36.5-16.28,36.5-36.36v-36.42C73,17.08,58.14,1.42,39.28,0Z"/>
    </g>
  </g>
</svg>