<?xml version="1.0" encoding="UTF-8"?>
<svg id="_レイヤー_2" data-name="レイヤー 2" xmlns="http://www.w3.org/2000/svg" width="127" height="91" viewBox="0 0 127 91">
  <defs>
    <style>
      .cls-1 {
        fill: #fff;
        stroke-width: 0px;
      }
    </style>
  </defs>
  <g id="main">
    <g id="excel_icon">
      <path class="cls-1" d="M126.54,79.23l-11.31-14.21V5.24c0-2.89-2.35-5.24-5.24-5.24H17c-2.89,0-5.24,2.35-5.24,5.24v59.78L.45,79.23c-.3.37-.45.83-.45,1.31v6.29c0,2.31,1.87,4.18,4.18,4.18h118.64c2.31,0,4.18-1.87,4.18-4.18v-6.29c0-.48-.16-.93-.46-1.31ZM19.15,7.39h88.69v50.23H19.15V7.39ZM75.44,86.03h-23.87v-6.32h23.87v6.32Z"/>
      <rect class="cls-1" x="32.76" y="42.85" width="8.78" height="8.78"/>
      <rect class="cls-1" x="45.93" y="34.07" width="8.78" height="17.56"/>
      <rect class="cls-1" x="59.11" y="29.68" width="8.78" height="21.95"/>
      <rect class="cls-1" x="72.28" y="16.51" width="8.78" height="35.12"/>
      <rect class="cls-1" x="85.46" y="25.29" width="8.78" height="26.34"/>
    </g>
  </g>
</svg>